<svg width="300" height="96" viewBox="0 0 300 96" fill="none" xmlns="http://www.w3.org/2000/svg">
<g clip-path="url(#clip0_572_12159)">
<mask id="mask0_572_12159" style="mask-type:luminance" maskUnits="userSpaceOnUse" x="-50" y="-51" width="400" height="198">
<path d="M-49.5547 -50.214H349.394V146.191H-49.5547V-50.214Z" fill="white"/>
</mask>
<g mask="url(#mask0_572_12159)">
<path d="M159.618 56.3169C157.574 54.9551 155.027 53.7108 151.974 52.5836C149.673 51.7378 147.805 50.9274 146.373 50.1524C144.94 49.3775 143.907 48.5681 143.273 47.7222C142.639 46.8764 142.322 45.9144 142.322 44.8338C142.322 43.8018 142.591 42.8963 143.133 42.1214C143.672 41.3464 144.401 40.7374 145.316 40.2902C146.233 39.844 147.277 39.6205 148.451 39.6205C150.094 39.6205 151.587 40.0787 152.925 40.9944C153.919 41.674 154.815 42.5936 155.614 43.7524C156.096 44.4514 157.035 44.6638 157.759 44.2208L162.098 41.5669C162.991 41.0206 163.283 39.8384 162.719 38.9567C161.31 36.7585 159.571 35.0424 157.504 33.809C154.944 32.2834 152.02 31.5195 148.733 31.5195C145.634 31.5195 142.921 32.1074 140.596 33.2801C138.272 34.4545 136.464 36.0522 135.171 38.0704C133.879 40.0908 133.234 42.4158 133.234 45.0453C133.234 47.5351 133.751 49.6951 134.784 51.5263C135.817 53.3587 137.379 54.9673 139.469 56.3524C141.558 57.7383 144.153 59.0414 147.253 60.2617C149.413 61.0609 151.21 61.8358 152.643 62.5865C154.075 63.3383 155.144 64.1608 155.848 65.0521C156.553 65.9454 156.905 67.0016 156.905 68.2228C156.905 69.538 156.563 70.6773 155.884 71.6393C155.203 72.6027 154.286 73.33 153.136 73.8236C151.984 74.3164 150.681 74.5633 149.227 74.5633C146.502 74.5633 144.212 73.8126 142.358 72.3091C140.831 71.0727 139.758 69.3286 139.139 67.0761C138.908 66.2393 138.065 65.7263 137.223 65.9337L131.687 67.2955C130.679 67.5434 130.044 68.5662 130.298 69.5728C131.223 73.2349 133.129 76.237 136.017 78.5787C139.374 81.3034 143.661 82.6641 148.874 82.6641C152.302 82.6641 155.284 82.0307 157.821 80.7621C160.357 79.4944 162.34 77.7219 163.774 75.4434C165.206 73.1661 165.923 70.5721 165.923 67.6592C165.923 65.0763 165.381 62.881 164.302 61.0719C163.222 59.265 161.66 57.6797 159.618 56.3169Z" fill="#0469F9"/>
</g>
<mask id="mask1_572_12159" style="mask-type:luminance" maskUnits="userSpaceOnUse" x="-50" y="-51" width="400" height="198">
<path d="M-49.5547 -50.214H349.394V146.191H-49.5547V-50.214Z" fill="white"/>
</mask>
<g mask="url(#mask1_572_12159)">
<path d="M179.108 46.9142H174.213C173.172 46.9142 172.328 47.7582 172.328 48.7995V79.7374C172.328 80.7906 173.182 81.6445 174.235 81.6445H179.108C180.15 81.6445 180.994 80.8003 180.994 79.7593V48.7995C180.994 47.7582 180.15 46.9142 179.108 46.9142Z" fill="#0469F9"/>
</g>
<mask id="mask2_572_12159" style="mask-type:luminance" maskUnits="userSpaceOnUse" x="-50" y="-51" width="400" height="198">
<path d="M-49.5547 -50.214H349.394V146.191H-49.5547V-50.214Z" fill="white"/>
</mask>
<g mask="url(#mask2_572_12159)">
<path d="M176.659 42.4688C179.75 42.4688 182.256 39.9631 182.256 36.8721C182.256 33.7812 179.75 31.2756 176.659 31.2756C173.568 31.2756 171.062 33.7812 171.062 36.8721C171.062 39.9631 173.568 42.4688 176.659 42.4688Z" fill="#0469F9"/>
</g>
<mask id="mask3_572_12159" style="mask-type:luminance" maskUnits="userSpaceOnUse" x="-50" y="-51" width="400" height="198">
<path d="M-49.5547 -50.214H349.394V146.191H-49.5547V-50.214Z" fill="white"/>
</mask>
<g mask="url(#mask3_572_12159)">
<path d="M128.183 4.73331C112.907 0.209707 94.329 -1.11368 74.814 1.7795C29.0412 8.56599 -4.38327 35.8332 0.159389 62.6825C2.71696 77.7954 16.775 89.5372 36.7265 95.7177C36.7265 95.7177 36.7904 95.7305 36.8244 95.7305C37.0392 95.7305 37.213 95.5564 37.213 95.3418C37.213 95.1675 37.0961 95.0255 36.9383 94.9763C23.907 89.2283 14.8529 80.4272 12.3401 69.3623C6.51045 43.6884 37.9475 15.6805 82.5567 6.80436C98.4839 3.63532 113.917 3.35601 127.466 5.45C127.466 5.45 127.858 5.52622 128.076 5.56779C128.288 5.6085 128.528 5.38418 128.528 5.15033C128.528 4.94377 128.405 4.79567 128.183 4.73331Z" fill="#0469F9"/>
</g>
<mask id="mask4_572_12159" style="mask-type:luminance" maskUnits="userSpaceOnUse" x="-50" y="-51" width="400" height="198">
<path d="M-49.5547 -50.214H349.394V146.191H-49.5547V-50.214Z" fill="white"/>
</mask>
<g mask="url(#mask4_572_12159)">
<path d="M111.466 46.0684C109.821 46.0684 108.224 46.3628 106.676 46.9496C105.126 47.5375 103.763 48.4642 102.589 49.7317C102.117 50.2421 101.703 50.8394 101.322 51.4862V48.3687C101.322 47.4877 100.607 46.7736 99.7263 46.7736H94.4009C93.3596 46.7736 92.5156 47.6176 92.5156 48.6588V79.6186C92.5156 80.6599 93.3596 81.5039 94.4009 81.5039H99.4361C100.477 81.5039 101.322 80.6599 101.322 79.6186V64.8784C101.322 62.2489 101.603 60.1121 102.167 58.468C102.73 56.8239 103.563 55.614 104.668 54.8399C105.77 54.065 107.168 53.6776 108.859 53.6776C111.066 53.6776 112.686 54.3463 113.72 55.6848C114.752 57.0233 115.27 59.149 115.27 62.0605V79.6186C115.27 80.6599 116.114 81.5039 117.156 81.5039H122.191C123.232 81.5039 124.076 80.6599 124.076 79.6186V58.8201C124.076 54.7813 122.959 51.646 120.729 49.4152C118.499 47.1854 115.411 46.0684 111.466 46.0684Z" fill="black"/>
</g>
<mask id="mask5_572_12159" style="mask-type:luminance" maskUnits="userSpaceOnUse" x="-50" y="-51" width="400" height="198">
<path d="M-49.5547 -50.214H349.394V146.191H-49.5547V-50.214Z" fill="white"/>
</mask>
<g mask="url(#mask5_572_12159)">
<path d="M251.604 71.338L246.943 69.4828C246.15 69.1671 245.27 69.5385 244.895 70.305C244.376 71.367 243.71 72.271 242.898 73.0174C241.746 74.0736 240.161 74.6017 238.142 74.6017C236.263 74.6017 234.714 74.098 233.493 73.0871C232.271 72.0785 231.379 70.7623 230.816 69.1425C230.252 67.5218 229.97 65.8433 229.97 64.105C229.97 62.3681 230.252 60.7006 230.816 59.1031C231.379 57.5078 232.271 56.2037 233.493 55.194C234.714 54.1842 236.263 53.6794 238.142 53.6794C240.161 53.6794 241.746 54.2075 242.898 55.2637C243.708 56.0086 244.373 56.8991 244.892 57.935C245.269 58.687 246.137 59.0484 246.919 58.7372L251.553 56.8927C252.415 56.5495 252.811 55.5433 252.416 54.7034C251.174 52.0588 249.469 50.026 247.301 48.6065C244.717 46.9159 241.664 46.0702 238.142 46.0702C235.324 46.0702 232.869 46.576 230.78 47.5847C228.69 48.5955 226.929 49.9451 225.497 51.6357C224.063 53.3263 222.996 55.2525 222.291 57.4125C221.587 59.5736 221.234 61.8045 221.234 64.105C221.234 66.4543 221.587 68.7085 222.291 70.8686C222.996 73.0295 224.063 74.9539 225.497 76.6454C226.929 78.336 228.69 79.6867 230.78 80.6953C232.869 81.7051 235.324 82.2109 238.142 82.2109C241.664 82.2109 244.717 81.3652 247.301 79.6746C249.49 78.2412 251.208 76.166 252.453 73.4489C252.826 72.6354 252.435 71.6689 251.604 71.338Z" fill="black"/>
</g>
<mask id="mask6_572_12159" style="mask-type:luminance" maskUnits="userSpaceOnUse" x="-50" y="-51" width="400" height="198">
<path d="M-49.5547 -50.214H349.394V146.191H-49.5547V-50.214Z" fill="white"/>
</mask>
<g mask="url(#mask6_572_12159)">
<path d="M281.185 67.205C281.185 68.7549 280.797 70.1289 280.023 71.3257C279.248 72.5237 278.214 73.4636 276.923 74.1444C275.631 74.8253 274.21 75.1653 272.661 75.1653C271.084 75.1653 269.797 74.8379 268.8 74.1799C267.479 73.3075 266.755 71.6732 267.008 70.1101C267.064 69.7656 267.163 69.443 267.307 69.1425C267.541 68.6488 267.893 68.2389 268.364 67.9091C268.88 67.4863 269.502 67.2171 270.23 67.0998C270.958 66.9824 271.697 66.9227 272.45 66.9227H281.185V67.205ZM285.905 49.6638C283.228 47.268 279.494 46.0702 274.704 46.0702C271.745 46.0702 268.986 46.5052 266.426 47.3743C264.319 48.0895 262.252 49.1784 260.225 50.641C259.498 51.1654 259.328 52.1813 259.862 52.9017L262.373 56.2899C262.899 56.9992 263.892 57.1347 264.604 56.6133C265.751 55.7737 267.016 55.089 268.399 54.5594C270.301 53.8321 272.168 53.4679 273.999 53.4679C276.206 53.4679 277.956 53.9726 279.248 54.9825C280.539 55.993 281.185 57.531 281.185 59.5968V60.4417H271.181C269.537 60.4417 268 60.5833 266.567 60.8646C265.134 61.1467 263.831 61.6395 262.658 62.3436C261.295 63.0954 260.202 64.188 259.382 65.6196C258.559 67.0532 258.148 68.7791 258.148 70.7976C258.148 73.0518 258.723 75.049 259.874 76.7859C261.025 78.5242 262.598 79.8625 264.595 80.8016C266.59 81.7404 268.856 82.2109 271.393 82.2109C273.177 82.2109 274.868 81.8578 276.466 81.1537C278.061 80.4495 279.482 79.3344 280.727 77.8079C280.925 77.5648 281.102 77.29 281.284 77.0235L281.72 80.2495C281.817 80.969 282.431 81.5057 283.157 81.5057H288.035C289.077 81.5057 289.921 80.6617 289.921 79.6205V59.5968C289.921 55.3698 288.582 52.0586 285.905 49.6638Z" fill="black"/>
</g>
<mask id="mask7_572_12159" style="mask-type:luminance" maskUnits="userSpaceOnUse" x="-50" y="-51" width="400" height="198">
<path d="M-49.5547 -50.214H349.394V146.191H-49.5547V-50.214Z" fill="white"/>
</mask>
<g mask="url(#mask7_572_12159)">
<path d="M84.2185 32.402H54.124C52.444 32.402 51.082 33.764 51.082 35.444V78.462C51.082 80.142 52.444 81.5039 54.124 81.5039H84.2185C85.2598 81.5039 86.1038 80.6599 86.1038 79.6186V75.2176C86.1038 74.1763 85.2598 73.3323 84.2185 73.3323H61.476C60.7552 73.3323 60.1708 72.7479 60.1708 72.0271V61.6754C60.1708 60.9543 60.7552 60.3699 61.476 60.3699H79.7369C80.7782 60.3699 81.6222 59.5259 81.6222 58.4847V54.1535C81.6222 53.1123 80.7782 52.2683 79.7369 52.2683H61.476C60.7552 52.2683 60.1708 51.6839 60.1708 50.9631V41.8788C60.1708 41.158 60.7552 40.5736 61.476 40.5736H84.2185C85.2598 40.5736 86.1038 39.7296 86.1038 38.6884V34.2873C86.1038 33.2461 85.2598 32.402 84.2185 32.402Z" fill="black"/>
</g>
<mask id="mask8_572_12159" style="mask-type:luminance" maskUnits="userSpaceOnUse" x="-50" y="-51" width="400" height="198">
<path d="M-49.5547 -50.214H349.394V146.191H-49.5547V-50.214Z" fill="white"/>
</mask>
<g mask="url(#mask8_572_12159)">
<path d="M195.835 32.5427H190.94C189.899 32.5427 189.055 33.3867 189.055 34.4279V79.7593C189.055 80.8003 189.899 81.6445 190.94 81.6445H195.835C196.876 81.6445 197.72 80.8003 197.72 79.7593V34.4279C197.72 33.3867 196.876 32.5427 195.835 32.5427Z" fill="black"/>
</g>
<mask id="mask9_572_12159" style="mask-type:luminance" maskUnits="userSpaceOnUse" x="-50" y="-51" width="400" height="198">
<path d="M-49.5547 -50.214H349.394V146.191H-49.5547V-50.214Z" fill="white"/>
</mask>
<g mask="url(#mask9_572_12159)">
<path d="M212.565 46.8283H207.671C206.629 46.8283 205.785 47.6723 205.785 48.7135V79.6733C205.785 80.7144 206.629 81.5586 207.671 81.5586H212.565C213.607 81.5586 214.451 80.7144 214.451 79.6733V48.7135C214.451 47.6723 213.607 46.8283 212.565 46.8283Z" fill="black"/>
</g>
<mask id="mask10_572_12159" style="mask-type:luminance" maskUnits="userSpaceOnUse" x="-50" y="-51" width="400" height="198">
<path d="M-49.5547 -50.214H349.394V146.191H-49.5547V-50.214Z" fill="white"/>
</mask>
<g mask="url(#mask10_572_12159)">
<path d="M210.12 31.2756C207.029 31.2756 204.523 33.7812 204.523 36.8723C204.523 39.9631 207.029 42.4688 210.12 42.4688C213.211 42.4688 215.717 39.9631 215.717 36.8723C215.717 33.7812 213.211 31.2756 210.12 31.2756Z" fill="black"/>
</g>
<mask id="mask11_572_12159" style="mask-type:luminance" maskUnits="userSpaceOnUse" x="-50" y="-51" width="400" height="198">
<path d="M-49.5547 -50.214H349.394V146.191H-49.5547V-50.214Z" fill="white"/>
</mask>
<g mask="url(#mask11_572_12159)">
<path d="M291.008 47.5833H292.474V51.5156H293.286V47.5833H294.758V46.8825H291.008V47.5833Z" fill="black"/>
</g>
<mask id="mask12_572_12159" style="mask-type:luminance" maskUnits="userSpaceOnUse" x="-50" y="-51" width="400" height="198">
<path d="M-49.5547 -50.214H349.394V146.191H-49.5547V-50.214Z" fill="white"/>
</mask>
<g mask="url(#mask12_572_12159)">
<path d="M298.964 46.8827L297.718 50.5099H297.705L296.427 46.8827H295.285V51.5156H296.057V47.9404H296.07L297.355 51.5156H298.023L299.308 47.9404H299.321V51.5156H300.093V46.8827H298.964Z" fill="black"/>
</g>
</g>
<defs>
<clipPath id="clip0_572_12159">
<rect width="300" height="95.3819" fill="white" transform="translate(0 0.40625)"/>
</clipPath>
</defs>
</svg>
