<svg xmlns="http://www.w3.org/2000/svg" xmlns:xlink="http://www.w3.org/1999/xlink" width="300" zoomAndPan="magnify" viewBox="0 0 224.87999 67.499998" height="90" preserveAspectRatio="xMidYMid meet" version="1.2"><defs><clipPath id="18b803e166"><path d="M 184.828125 16.960938 L 212.269531 16.960938 L 212.269531 45.292969 L 184.828125 45.292969 Z M 184.828125 16.960938 "/></clipPath><clipPath id="863d2fd27c"><path d="M 184.828125 16.960938 L 212.230469 16.960938 L 212.230469 45.25 L 184.828125 45.25 Z M 184.828125 16.960938 "/></clipPath></defs><g id="120f696108"><g clip-rule="nonzero" clip-path="url(#18b803e166)"><path style=" stroke:none;fill-rule:nonzero;fill:#d02631;fill-opacity:1;" d="M 184.828125 16.960938 L 212.269531 16.960938 L 212.269531 45.261719 L 184.828125 45.261719 Z M 184.828125 16.960938 "/></g><g clip-rule="nonzero" clip-path="url(#863d2fd27c)"><path style="fill:none;stroke-width:4;stroke-linecap:butt;stroke-linejoin:miter;stroke:#d02631;stroke-opacity:1;stroke-miterlimit:4;" d="M -0.00152153 0.000401685 L 36.850988 0.000401685 L 36.850988 38.04543 L -0.00152153 38.04543 Z M -0.00152153 0.000401685 " transform="matrix(0.743568,0,0,0.743568,184.829256,16.960639)"/></g><g style="fill:#073b4c;fill-opacity:1;"><g transform="translate(14.750846, 40.998661)"><path style="stroke:none" d="M 13.3125 0 L 4.890625 -15.078125 L 4.890625 0 L 0.953125 0 L 0.953125 -22.078125 L 5.203125 -22.078125 L 13.625 -7 L 13.625 -22.078125 L 17.578125 -22.078125 L 17.578125 0 Z M 13.3125 0 "/></g></g><g style="fill:#073b4c;fill-opacity:1;"><g transform="translate(34.845988, 40.998661)"><path style="stroke:none" d="M 0.5 -7.890625 C 0.5 -9.503906 0.84375 -10.921875 1.53125 -12.140625 C 2.21875 -13.359375 3.175781 -14.304688 4.40625 -14.984375 C 5.632812 -15.660156 7.054688 -16 8.671875 -16 C 10.316406 -16 11.75 -15.660156 12.96875 -14.984375 C 14.1875 -14.304688 15.128906 -13.359375 15.796875 -12.140625 C 16.472656 -10.921875 16.8125 -9.503906 16.8125 -7.890625 C 16.8125 -6.265625 16.472656 -4.835938 15.796875 -3.609375 C 15.128906 -2.378906 14.1875 -1.421875 12.96875 -0.734375 C 11.75 -0.0546875 10.316406 0.28125 8.671875 0.28125 C 7.054688 0.28125 5.632812 -0.0546875 4.40625 -0.734375 C 3.175781 -1.421875 2.21875 -2.378906 1.53125 -3.609375 C 0.84375 -4.835938 0.5 -6.265625 0.5 -7.890625 Z M 4.296875 -7.859375 C 4.296875 -6.378906 4.691406 -5.226562 5.484375 -4.40625 C 6.285156 -3.59375 7.335938 -3.1875 8.640625 -3.1875 C 9.960938 -3.1875 11.023438 -3.59375 11.828125 -4.40625 C 12.628906 -5.226562 13.03125 -6.378906 13.03125 -7.859375 C 13.03125 -9.328125 12.628906 -10.472656 11.828125 -11.296875 C 11.023438 -12.117188 9.960938 -12.53125 8.640625 -12.53125 C 7.335938 -12.53125 6.285156 -12.117188 5.484375 -11.296875 C 4.691406 -10.472656 4.296875 -9.328125 4.296875 -7.859375 Z M 4.296875 -7.859375 "/></g></g><g style="fill:#073b4c;fill-opacity:1;"><g transform="translate(53.742374, 40.998661)"><path style="stroke:none" d="M 5.96875 0 L 0 -15.765625 L 4.0625 -15.765625 L 7.921875 -5.078125 L 11.765625 -15.765625 L 15.84375 -15.765625 L 9.875 0 Z M 5.96875 0 "/></g></g><g style="fill:#073b4c;fill-opacity:1;"><g transform="translate(71.15609, 40.998661)"><path style="stroke:none" d="M 0.5 -7.890625 C 0.5 -9.503906 0.84375 -10.921875 1.53125 -12.140625 C 2.21875 -13.359375 3.175781 -14.304688 4.40625 -14.984375 C 5.632812 -15.660156 7.054688 -16 8.671875 -16 C 10.316406 -16 11.75 -15.660156 12.96875 -14.984375 C 14.1875 -14.304688 15.128906 -13.359375 15.796875 -12.140625 C 16.472656 -10.921875 16.8125 -9.503906 16.8125 -7.890625 C 16.8125 -6.265625 16.472656 -4.835938 15.796875 -3.609375 C 15.128906 -2.378906 14.1875 -1.421875 12.96875 -0.734375 C 11.75 -0.0546875 10.316406 0.28125 8.671875 0.28125 C 7.054688 0.28125 5.632812 -0.0546875 4.40625 -0.734375 C 3.175781 -1.421875 2.21875 -2.378906 1.53125 -3.609375 C 0.84375 -4.835938 0.5 -6.265625 0.5 -7.890625 Z M 4.296875 -7.859375 C 4.296875 -6.378906 4.691406 -5.226562 5.484375 -4.40625 C 6.285156 -3.59375 7.335938 -3.1875 8.640625 -3.1875 C 9.960938 -3.1875 11.023438 -3.59375 11.828125 -4.40625 C 12.628906 -5.226562 13.03125 -6.378906 13.03125 -7.859375 C 13.03125 -9.328125 12.628906 -10.472656 11.828125 -11.296875 C 11.023438 -12.117188 9.960938 -12.53125 8.640625 -12.53125 C 7.335938 -12.53125 6.285156 -12.117188 5.484375 -11.296875 C 4.691406 -10.472656 4.296875 -9.328125 4.296875 -7.859375 Z M 4.296875 -7.859375 "/></g></g><g style="fill:#073b4c;fill-opacity:1;"><g transform="translate(90.052476, 40.998661)"><path style="stroke:none" d="M 8.203125 -16.0625 C 9.566406 -16.0625 10.679688 -15.816406 11.546875 -15.328125 C 12.410156 -14.847656 13.082031 -14.25 13.5625 -13.53125 C 14.050781 -14.25 14.722656 -14.847656 15.578125 -15.328125 C 16.441406 -15.816406 17.554688 -16.0625 18.921875 -16.0625 C 20.234375 -16.0625 21.34375 -15.84375 22.25 -15.40625 C 23.164062 -14.976562 23.910156 -14.425781 24.484375 -13.75 C 25.066406 -13.082031 25.492188 -12.363281 25.765625 -11.59375 C 26.046875 -10.820312 26.1875 -10.09375 26.1875 -9.40625 L 26.1875 0 L 22.390625 0 L 22.390625 -9.3125 C 22.390625 -10.425781 22.039062 -11.242188 21.34375 -11.765625 C 20.65625 -12.296875 19.847656 -12.5625 18.921875 -12.5625 C 18.023438 -12.5625 17.222656 -12.296875 16.515625 -11.765625 C 15.804688 -11.242188 15.453125 -10.425781 15.453125 -9.3125 L 15.453125 0 L 11.671875 0 L 11.671875 -9.3125 C 11.671875 -10.425781 11.320312 -11.242188 10.625 -11.765625 C 9.9375 -12.296875 9.128906 -12.5625 8.203125 -12.5625 C 7.296875 -12.5625 6.488281 -12.296875 5.78125 -11.765625 C 5.082031 -11.242188 4.734375 -10.425781 4.734375 -9.3125 L 4.734375 0 L 0.953125 0 L 0.953125 -9.40625 C 0.953125 -10.09375 1.085938 -10.820312 1.359375 -11.59375 C 1.628906 -12.363281 2.050781 -13.082031 2.625 -13.75 C 3.207031 -14.425781 3.957031 -14.976562 4.875 -15.40625 C 5.789062 -15.84375 6.898438 -16.0625 8.203125 -16.0625 Z M 8.203125 -16.0625 "/></g></g><g style="fill:#073b4c;fill-opacity:1;"><g transform="translate(118.759746, 40.998661)"><path style="stroke:none" d="M 0.5 -7.890625 C 0.5 -9.503906 0.84375 -10.921875 1.53125 -12.140625 C 2.21875 -13.359375 3.175781 -14.304688 4.40625 -14.984375 C 5.632812 -15.660156 7.054688 -16 8.671875 -16 C 10.316406 -16 11.75 -15.660156 12.96875 -14.984375 C 14.1875 -14.304688 15.128906 -13.359375 15.796875 -12.140625 C 16.472656 -10.921875 16.8125 -9.503906 16.8125 -7.890625 C 16.8125 -6.265625 16.472656 -4.835938 15.796875 -3.609375 C 15.128906 -2.378906 14.1875 -1.421875 12.96875 -0.734375 C 11.75 -0.0546875 10.316406 0.28125 8.671875 0.28125 C 7.054688 0.28125 5.632812 -0.0546875 4.40625 -0.734375 C 3.175781 -1.421875 2.21875 -2.378906 1.53125 -3.609375 C 0.84375 -4.835938 0.5 -6.265625 0.5 -7.890625 Z M 4.296875 -7.859375 C 4.296875 -6.378906 4.691406 -5.226562 5.484375 -4.40625 C 6.285156 -3.59375 7.335938 -3.1875 8.640625 -3.1875 C 9.960938 -3.1875 11.023438 -3.59375 11.828125 -4.40625 C 12.628906 -5.226562 13.03125 -6.378906 13.03125 -7.859375 C 13.03125 -9.328125 12.628906 -10.472656 11.828125 -11.296875 C 11.023438 -12.117188 9.960938 -12.53125 8.640625 -12.53125 C 7.335938 -12.53125 6.285156 -12.117188 5.484375 -11.296875 C 4.691406 -10.472656 4.296875 -9.328125 4.296875 -7.859375 Z M 4.296875 -7.859375 "/></g></g><g style="fill:#073b4c;fill-opacity:1;"><g transform="translate(137.656131, 40.998661)"><path style="stroke:none" d="M 0.953125 -8.828125 C 0.953125 -11.222656 1.65625 -13.023438 3.0625 -14.234375 C 4.46875 -15.453125 6.367188 -16.0625 8.765625 -16.0625 L 8.765625 -12.59375 C 7.503906 -12.59375 6.515625 -12.28125 5.796875 -11.65625 C 5.085938 -11.03125 4.734375 -10.085938 4.734375 -8.828125 L 4.734375 0 L 0.953125 0 Z M 0.953125 -8.828125 "/></g></g><g style="fill:#073b4c;fill-opacity:1;"><g transform="translate(148.508225, 40.998661)"><path style="stroke:none" d="M 4.765625 6.3125 L 0.984375 6.3125 L 0.984375 -7.921875 C 0.984375 -9.617188 1.347656 -11.070312 2.078125 -12.28125 C 2.816406 -13.488281 3.804688 -14.414062 5.046875 -15.0625 C 6.285156 -15.707031 7.675781 -16.03125 9.21875 -16.03125 C 10.8125 -16.03125 12.210938 -15.691406 13.421875 -15.015625 C 14.628906 -14.335938 15.570312 -13.390625 16.25 -12.171875 C 16.9375 -10.953125 17.28125 -9.535156 17.28125 -7.921875 C 17.28125 -6.296875 16.941406 -4.867188 16.265625 -3.640625 C 15.597656 -2.410156 14.671875 -1.453125 13.484375 -0.765625 C 12.296875 -0.0859375 10.9375 0.25 9.40625 0.25 C 8.269531 0.25 7.304688 0.0703125 6.515625 -0.28125 C 5.722656 -0.632812 5.140625 -1.054688 4.765625 -1.546875 Z M 13.5 -7.890625 C 13.5 -9.359375 13.097656 -10.503906 12.296875 -11.328125 C 11.503906 -12.148438 10.441406 -12.5625 9.109375 -12.5625 C 7.804688 -12.5625 6.753906 -12.148438 5.953125 -11.328125 C 5.160156 -10.503906 4.765625 -9.359375 4.765625 -7.890625 C 4.765625 -6.410156 5.160156 -5.257812 5.953125 -4.4375 C 6.753906 -3.625 7.804688 -3.21875 9.109375 -3.21875 C 10.441406 -3.21875 11.503906 -3.625 12.296875 -4.4375 C 13.097656 -5.257812 13.5 -6.410156 13.5 -7.890625 Z M 13.5 -7.890625 "/></g></g><g style="fill:#073b4c;fill-opacity:1;"><g transform="translate(167.846264, 40.998661)"><path style="stroke:none" d="M 4.734375 -22.078125 L 4.734375 -14.671875 C 5.191406 -15.085938 5.742188 -15.421875 6.390625 -15.671875 C 7.046875 -15.929688 7.816406 -16.0625 8.703125 -16.0625 C 9.878906 -16.0625 10.894531 -15.84375 11.75 -15.40625 C 12.601562 -14.976562 13.300781 -14.425781 13.84375 -13.75 C 14.394531 -13.082031 14.800781 -12.363281 15.0625 -11.59375 C 15.320312 -10.820312 15.453125 -10.09375 15.453125 -9.40625 L 15.453125 0 L 11.671875 0 L 11.671875 -9.3125 C 11.671875 -10.425781 11.320312 -11.242188 10.625 -11.765625 C 9.9375 -12.296875 9.128906 -12.5625 8.203125 -12.5625 C 7.296875 -12.5625 6.488281 -12.296875 5.78125 -11.765625 C 5.082031 -11.242188 4.734375 -10.425781 4.734375 -9.3125 L 4.734375 0 L 0.953125 0 L 0.953125 -22.078125 Z M 4.734375 -22.078125 "/></g></g><g style="fill:#ffffff;fill-opacity:1;"><g transform="translate(185.835475, 40.998661)"><path style="stroke:none" d="M 0.75 -20.34375 C 0.75 -20.914062 0.945312 -21.40625 1.34375 -21.8125 C 1.75 -22.226562 2.25 -22.4375 2.84375 -22.4375 C 3.425781 -22.4375 3.914062 -22.226562 4.3125 -21.8125 C 4.71875 -21.40625 4.921875 -20.914062 4.921875 -20.34375 C 4.921875 -19.757812 4.71875 -19.257812 4.3125 -18.84375 C 3.914062 -18.4375 3.425781 -18.234375 2.84375 -18.234375 C 2.25 -18.234375 1.75 -18.4375 1.34375 -18.84375 C 0.945312 -19.257812 0.75 -19.757812 0.75 -20.34375 Z M 0.953125 0 L 0.953125 -15.765625 L 4.734375 -15.765625 L 4.734375 0 Z M 0.953125 0 "/></g></g><g style="fill:#ffffff;fill-opacity:1;"><g transform="translate(193.091302, 40.998661)"><path style="stroke:none" d="M 4.265625 -7.859375 C 4.265625 -6.378906 4.660156 -5.226562 5.453125 -4.40625 C 6.253906 -3.59375 7.304688 -3.1875 8.609375 -3.1875 C 9.578125 -3.1875 10.398438 -3.40625 11.078125 -3.84375 C 11.765625 -4.289062 12.28125 -4.910156 12.625 -5.703125 L 16.5625 -5.703125 C 16.144531 -3.878906 15.234375 -2.425781 13.828125 -1.34375 C 12.429688 -0.257812 10.703125 0.28125 8.640625 0.28125 C 7.023438 0.28125 5.601562 -0.0546875 4.375 -0.734375 C 3.144531 -1.421875 2.1875 -2.378906 1.5 -3.609375 C 0.8125 -4.835938 0.46875 -6.265625 0.46875 -7.890625 C 0.46875 -9.503906 0.8125 -10.921875 1.5 -12.140625 C 2.1875 -13.359375 3.144531 -14.304688 4.375 -14.984375 C 5.601562 -15.660156 7.023438 -16 8.640625 -16 C 10.703125 -16 12.429688 -15.46875 13.828125 -14.40625 C 15.234375 -13.34375 16.132812 -11.90625 16.53125 -10.09375 L 12.59375 -10.09375 C 12.25 -10.875 11.734375 -11.472656 11.046875 -11.890625 C 10.367188 -12.316406 9.554688 -12.53125 8.609375 -12.53125 C 7.304688 -12.53125 6.253906 -12.117188 5.453125 -11.296875 C 4.660156 -10.472656 4.265625 -9.328125 4.265625 -7.859375 Z M 4.265625 -7.859375 "/></g></g></g></svg>