<?xml version="1.0" encoding="UTF-8" standalone="no"?>
<svg
   width="778"
   height="271"
   viewBox="0 0 778 271"
   fill="none"
   version="1.1"
   id="svg10"
   sodipodi:docname="eu_open_source_awards.svg"
   inkscape:version="1.2.2 (b0a8486541, 2022-12-01)"
   xmlns:inkscape="http://www.inkscape.org/namespaces/inkscape"
   xmlns:sodipodi="http://sodipodi.sourceforge.net/DTD/sodipodi-0.dtd"
   xmlns="http://www.w3.org/2000/svg"
   xmlns:svg="http://www.w3.org/2000/svg">
  <defs
     id="defs14" />
  <sodipodi:namedview
     id="namedview12"
     pagecolor="#505050"
     bordercolor="#eeeeee"
     borderopacity="1"
     inkscape:showpageshadow="0"
     inkscape:pageopacity="0"
     inkscape:pagecheckerboard="0"
     inkscape:deskcolor="#505050"
     showgrid="false"
     inkscape:zoom="1.6632391"
     inkscape:cx="265.14529"
     inkscape:cy="135.87944"
     inkscape:window-width="2560"
     inkscape:window-height="1380"
     inkscape:window-x="0"
     inkscape:window-y="0"
     inkscape:window-maximized="1"
     inkscape:current-layer="svg10" />
  <path
     d="M156.463 240.955H92.633L83.8502 270.829H26.5767L94.7359 89.8545H155.844L224.003 270.829H165.369L156.463 240.955ZM144.711 201.822L124.672 136.765L104.756 201.822H144.711Z"
     fill="#FFB907"
     id="path2" />
  <path
     fill-rule="evenodd"
     clip-rule="evenodd"
     d="M187.425 139.271L214.282 212.216C262.813 163.546 262.678 84.9854 213.882 36.479C164.952 -12.1597 85.6258 -12.1597 36.6962 36.479C-12.175 85.0596 -12.2307 163.787 36.5212 212.436L63.275 139.774C58.1115 118.911 63.7288 95.9521 80.1269 79.6515C105.069 54.8574 145.508 54.8574 170.451 79.6515C186.718 95.8214 192.376 118.543 187.425 139.271ZM21.3227 121.782L21.3217 121.781L21.3209 121.781C19.8997 120.686 18.5637 119.656 17.7178 118.994L28.1546 118.998C28.6532 117.698 29.188 116.252 29.7548 114.72C30.4524 112.835 31.1984 110.818 31.9847 108.782L35.5049 118.979L46.103 118.998C44.7423 120.088 43.6193 120.996 42.5227 121.882L42.5223 121.882C41.1066 123.027 39.735 124.135 37.9527 125.555L38.2784 126.775L38.2787 126.776L38.2791 126.778C39.0371 129.618 39.8597 132.699 40.7238 135.814L31.9847 129.927C31.2165 130.44 30.4695 130.938 29.7275 131.432L29.7091 131.444L29.7061 131.446C27.6164 132.839 25.5642 134.207 23.1833 135.816L26.1949 125.555C24.9439 124.573 23.0715 123.13 21.3265 121.785L21.3244 121.784L21.3227 121.782ZM204.707 119.008C205.554 119.67 206.89 120.7 208.312 121.795C210.058 123.141 211.933 124.585 213.184 125.569L210.173 135.83C212.551 134.222 214.601 132.856 216.688 131.465L216.69 131.464L216.7 131.457L216.701 131.456C217.448 130.958 218.201 130.457 218.974 129.94L227.713 135.828C226.849 132.711 226.026 129.628 225.268 126.787L224.942 125.569C226.732 124.143 228.108 123.031 229.529 121.882C230.621 121 231.739 120.096 233.093 119.011L222.495 118.992L218.975 108.796C218.189 110.831 217.443 112.846 216.746 114.731L216.745 114.734L216.745 114.735C216.178 116.267 215.644 117.712 215.145 119.011L204.708 119.008H204.707ZM195.85 74.935C194.428 73.8393 193.091 72.8092 192.245 72.1469H192.246L202.683 72.1504C203.181 70.8507 203.716 69.4048 204.283 67.8727L204.283 67.8722C204.981 65.9865 205.726 63.9703 206.513 61.935L210.032 72.1317L220.63 72.1504C219.276 73.2352 218.158 74.1393 217.067 75.0214C215.645 76.1706 214.269 77.2825 212.48 78.7079L212.806 79.9308C213.564 82.7706 214.387 85.8522 215.251 88.9671L206.512 83.0796C205.737 83.5967 204.985 84.0984 204.237 84.5968L204.233 84.5993C202.143 85.9918 200.091 87.3592 197.71 88.9689L200.722 78.7079C199.47 77.7245 197.596 76.2803 195.85 74.935ZM161.632 40.5854L161.636 40.5887L161.637 40.5895C163.383 41.9346 165.256 43.3785 166.508 44.3617L163.496 54.6227C165.878 53.0122 167.931 51.6442 170.022 50.251C170.77 49.7524 171.523 49.2507 172.298 48.7334L181.037 54.6209C180.173 51.5053 179.35 48.4231 178.592 45.5827L178.592 45.5826L178.266 44.3617C180.051 42.9392 181.425 41.829 182.844 40.6823L182.85 40.6769L182.853 40.6751L182.853 40.675C183.944 39.793 185.062 38.8889 186.416 37.8042L175.818 37.7855L172.298 27.5888C171.511 29.6243 170.765 31.6409 170.068 33.5268C169.501 35.0588 168.966 36.5045 168.468 37.8042L158.031 37.8007C158.876 38.4623 160.211 39.491 161.632 40.5854ZM115.103 28.1864L115.101 28.1849C113.68 27.0899 112.344 26.0605 111.498 25.3985L121.935 25.4021C122.434 24.1024 122.969 22.6567 123.535 21.1247C124.233 19.2388 124.979 17.2222 125.765 15.1867L129.286 25.3834L139.884 25.4021C138.53 26.4867 137.412 27.3908 136.32 28.2728C134.899 29.4221 133.523 30.534 131.733 31.9596L132.059 33.1803L132.06 33.1816C132.818 36.0217 133.64 39.1036 134.504 42.2188L125.765 36.3313C124.992 36.8478 124.24 37.3488 123.493 37.8466L123.491 37.8482L123.49 37.8484L123.489 37.849C121.399 39.2422 119.346 40.6101 116.964 42.2205L119.976 31.9596C118.724 30.9765 116.851 29.5331 115.106 28.1882L115.105 28.1879L115.103 28.1864ZM64.4425 37.7676C65.2888 38.43 66.6256 39.46 68.0474 40.5556C69.7934 41.901 71.6677 43.3452 72.9196 44.3287L69.908 54.5897C72.2896 52.9795 74.3422 51.6116 76.4326 50.2187L76.4339 50.2178C77.1819 49.7193 77.9349 49.2176 78.7094 48.7004L87.4485 54.5879C86.5847 51.4738 85.7624 48.3929 85.0045 45.5537L85.0031 45.5485L84.6774 44.3287C86.4665 42.9036 87.8418 41.7919 89.2631 40.643L89.2642 40.6422L89.2656 40.641C90.3564 39.7593 91.4745 38.8555 92.8277 37.7712L82.2296 37.7525L78.7094 27.5558C77.9232 29.591 77.1773 31.6072 76.4798 33.4929L76.4795 33.4937C75.9128 35.0257 75.3779 36.4715 74.8793 37.7712L64.4425 37.7676ZM33.7397 74.9064C32.3178 73.8108 30.981 72.7807 30.1346 72.1183H30.1355L40.5723 72.1219C41.071 70.8222 41.6058 69.3764 42.1726 67.8444C42.8702 65.9586 43.6161 63.942 44.4025 61.9065L47.9218 72.1032L58.5199 72.1219C57.1662 73.2066 56.0477 74.1107 54.9566 74.9927C53.5347 76.142 52.1592 77.2539 50.3696 78.6794C50.4768 79.0806 50.5854 79.4875 50.6954 79.8995C51.4536 82.7401 52.2764 85.8227 53.1407 88.9386L44.4016 83.0511C43.6272 83.5682 42.8744 84.0698 42.1265 84.5682C40.0355 85.9616 37.9824 87.3297 35.6002 88.9404L38.6118 78.6794C37.3599 77.696 35.4857 76.2517 33.7397 74.9064Z"
     fill="#DFDFDF"
     id="path4"
     style="fill:#252525;fill-opacity:1" />
  <path
     d="M288.462 91.8289V29.5525H333.491V36.9016H296.703V55.9753H331.155V63.282H296.703V84.4797H334.936V91.8289H288.462ZM373.17 91.8289V85.2019C369.658 90.2996 364.886 92.8484 358.854 92.8484C356.192 92.8484 353.699 92.3386 351.377 91.3191C349.083 90.2996 347.37 89.0251 346.237 87.4958C345.133 85.9382 344.354 84.0408 343.901 81.8035C343.589 80.3025 343.433 77.9236 343.433 74.6667V46.7146H351.08V71.7356C351.08 75.7288 351.236 78.4192 351.547 79.8069C352.029 81.8176 353.048 83.4036 354.606 84.5647C356.163 85.6975 358.089 86.2639 360.383 86.2639C362.677 86.2639 364.829 85.6833 366.84 84.5222C368.851 83.3328 370.267 81.7327 371.088 79.7219C371.938 77.6829 372.363 74.7375 372.363 70.886V46.7146H380.009V91.8289H373.17ZM390.206 91.8289V46.7146H397.088V53.554C398.844 50.3538 400.458 48.2439 401.931 47.2244C403.432 46.2048 405.074 45.6951 406.858 45.6951C409.436 45.6951 412.055 46.5164 414.717 48.1589L412.083 55.2532C410.214 54.1487 408.345 53.5964 406.476 53.5964C404.805 53.5964 403.304 54.1062 401.973 55.1257C400.642 56.1169 399.693 57.5046 399.127 59.2888C398.277 62.0076 397.853 64.9812 397.853 68.2097V91.8289H390.206ZM414.676 69.2717C414.676 60.9172 416.999 54.7292 421.643 50.7078C425.523 47.366 430.253 45.6951 435.832 45.6951C442.034 45.6951 447.103 47.7341 451.04 51.8123C454.976 55.8621 456.945 61.4695 456.945 68.6345C456.945 74.4402 456.067 79.0139 454.311 82.3557C452.583 85.6692 450.049 88.2463 446.707 90.0872C443.393 91.928 439.768 92.8484 435.832 92.8484C429.516 92.8484 424.405 90.8235 420.496 86.7737C416.616 82.7239 414.676 76.8899 414.676 69.2717ZM422.535 69.2717C422.535 75.0491 423.796 79.3821 426.316 82.2708C428.837 85.1311 432.009 86.5613 435.832 86.5613C439.627 86.5613 442.784 85.1169 445.305 82.2283C447.825 79.3396 449.086 74.9358 449.086 69.0168C449.086 63.4377 447.811 59.218 445.262 56.3577C442.742 53.469 439.598 52.0247 435.832 52.0247C432.009 52.0247 428.837 53.4548 426.316 56.3152C423.796 59.1755 422.535 63.4944 422.535 69.2717ZM464.21 109.118V46.7146H471.177V52.5769C472.82 50.283 474.675 48.5696 476.742 47.4368C478.81 46.2756 481.316 45.6951 484.261 45.6951C488.113 45.6951 491.511 46.6863 494.456 48.6687C497.402 50.6511 499.625 53.4548 501.126 57.0798C502.627 60.6765 503.377 64.6272 503.377 68.9319C503.377 73.5481 502.542 77.7112 500.871 81.4211C499.228 85.1028 496.821 87.9348 493.649 89.9172C490.506 91.8713 487.192 92.8484 483.709 92.8484C481.16 92.8484 478.866 92.3103 476.827 91.2341C474.816 90.158 473.16 88.7986 471.857 87.156V109.118H464.21ZM471.135 69.5266C471.135 75.3323 472.31 79.6228 474.661 82.3982C477.011 85.1736 479.857 86.5613 483.199 86.5613C486.598 86.5613 489.5 85.1311 491.908 82.2708C494.343 79.3821 495.561 74.9216 495.561 68.8894C495.561 63.1404 494.372 58.8357 491.993 55.9753C489.642 53.115 486.824 51.6848 483.539 51.6848C480.282 51.6848 477.394 53.2141 474.873 56.2727C472.381 59.303 471.135 63.7209 471.135 69.5266ZM541.781 77.3005L549.683 78.2776C548.437 82.8938 546.129 86.4763 542.758 89.0251C539.388 91.574 535.084 92.8484 529.844 92.8484C523.246 92.8484 518.007 90.8235 514.127 86.7737C510.275 82.6956 508.349 76.989 508.349 69.6541C508.349 62.0642 510.303 56.1736 514.212 51.9822C518.12 47.7908 523.189 45.6951 529.42 45.6951C535.452 45.6951 540.38 47.7483 544.203 51.8547C548.026 55.9612 549.938 61.7385 549.938 69.1868C549.938 69.6399 549.924 70.3196 549.895 71.2258H516.251C516.534 76.1819 517.936 79.9768 520.456 82.6106C522.977 85.2444 526.12 86.5613 529.887 86.5613C532.691 86.5613 535.084 85.825 537.066 84.3523C539.049 82.8796 540.62 80.5291 541.781 77.3005ZM516.675 64.9387H541.866C541.527 61.1438 540.564 58.2976 538.978 56.4001C536.542 53.4548 533.384 51.9822 529.505 51.9822C525.993 51.9822 523.033 53.1575 520.626 55.5081C518.247 57.8586 516.93 61.0022 516.675 64.9387ZM587.025 86.2639C584.193 88.6711 581.46 90.3704 578.826 91.3616C576.221 92.3528 573.417 92.8484 570.415 92.8484C565.459 92.8484 561.65 91.6448 558.988 89.2375C556.326 86.802 554.995 83.7009 554.995 79.9343C554.995 77.7253 555.49 75.7146 556.481 73.9021C557.501 72.0613 558.818 70.5886 560.432 69.4841C562.075 68.3796 563.915 67.5442 565.955 66.9778C567.456 66.5813 569.721 66.199 572.751 65.8308C578.925 65.0945 583.471 64.2166 586.388 63.197C586.416 62.1492 586.43 61.4836 586.43 61.2004C586.43 58.0852 585.708 55.8904 584.264 54.616C582.31 52.8884 579.407 52.0247 575.555 52.0247C571.958 52.0247 569.296 52.6619 567.569 53.9363C565.87 55.1824 564.609 57.4055 563.788 60.6057L556.311 59.5862C556.991 56.386 558.11 53.8088 559.667 51.8547C561.225 49.8723 563.477 48.3572 566.422 47.3093C569.367 46.2332 572.78 45.6951 576.66 45.6951C580.511 45.6951 583.641 46.1482 586.048 47.0544C588.455 47.9607 590.225 49.1077 591.358 50.4954C592.491 51.8547 593.284 53.5823 593.737 55.678C593.992 56.9807 594.119 59.3313 594.119 62.7297V72.925C594.119 80.0334 594.275 84.5364 594.586 86.4338C594.926 88.303 595.578 90.1013 596.54 91.8289H588.554C587.761 90.2429 587.251 88.3879 587.025 86.2639ZM586.388 69.1868C583.612 70.3196 579.449 71.2825 573.898 72.0754C570.755 72.5286 568.532 73.0383 567.229 73.6047C565.926 74.1711 564.921 75.0066 564.213 76.1111C563.505 77.1873 563.151 78.3909 563.151 79.7219C563.151 81.761 563.915 83.4602 565.445 84.8196C567.002 86.179 569.268 86.8586 572.242 86.8586C575.187 86.8586 577.807 86.2214 580.101 84.947C582.394 83.6443 584.08 81.8743 585.156 79.637C585.977 77.9094 586.388 75.3606 586.388 71.9905V69.1868ZM604.274 91.8289V46.7146H611.155V53.1292C614.469 48.1731 619.255 45.6951 625.514 45.6951C628.233 45.6951 630.725 46.1907 632.99 47.1819C635.284 48.1448 636.998 49.4192 638.131 51.0051C639.263 52.5911 640.056 54.4744 640.509 56.655C640.793 58.071 640.934 60.5491 640.934 64.0891V91.8289H633.288V64.3865C633.288 61.2712 632.99 58.949 632.396 57.4197C631.801 55.8621 630.739 54.6301 629.21 53.7239C627.709 52.7893 625.939 52.322 623.9 52.322C620.643 52.322 617.825 53.3557 615.446 55.4231C613.095 57.4905 611.92 61.4128 611.92 67.1902V91.8289H604.274ZM285.786 138.498C285.786 128.161 288.561 120.075 294.112 114.241C299.663 108.379 306.828 105.448 315.607 105.448C321.356 105.448 326.539 106.822 331.155 109.569C335.771 112.316 339.283 116.153 341.69 121.081C344.125 125.98 345.343 131.545 345.343 137.776C345.343 144.091 344.069 149.741 341.52 154.725C338.971 159.71 335.36 163.49 330.688 166.068C326.015 168.616 320.974 169.891 315.564 169.891C309.702 169.891 304.463 168.475 299.847 165.643C295.23 162.811 291.733 158.945 289.354 154.046C286.975 149.146 285.786 143.964 285.786 138.498ZM294.282 138.625C294.282 146.13 296.292 152.049 300.314 156.382C304.364 160.687 309.433 162.839 315.522 162.839C321.724 162.839 326.822 160.658 330.815 156.297C334.836 151.936 336.847 145.748 336.847 137.733C336.847 132.664 335.983 128.246 334.256 124.479C332.557 120.684 330.05 117.753 326.737 115.686C323.452 113.59 319.756 112.542 315.649 112.542C309.815 112.542 304.789 114.553 300.569 118.574C296.377 122.568 294.282 129.251 294.282 138.625ZM353.289 186.118V123.715H360.256V129.577C361.898 127.283 363.753 125.57 365.821 124.437C367.888 123.276 370.394 122.695 373.34 122.695C377.191 122.695 380.59 123.686 383.535 125.669C386.48 127.651 388.703 130.455 390.204 134.08C391.705 137.677 392.456 141.627 392.456 145.932C392.456 150.548 391.62 154.711 389.949 158.421C388.307 162.103 385.9 164.935 382.728 166.917C379.584 168.871 376.271 169.848 372.787 169.848C370.239 169.848 367.945 169.31 365.906 168.234C363.895 167.158 362.238 165.799 360.935 164.156V186.118H353.289ZM360.213 146.527C360.213 152.332 361.388 156.623 363.739 159.398C366.09 162.174 368.936 163.561 372.278 163.561C375.676 163.561 378.579 162.131 380.986 159.271C383.422 156.382 384.639 151.922 384.639 145.889C384.639 140.14 383.45 135.836 381.071 132.975C378.72 130.115 375.903 128.685 372.617 128.685C369.361 128.685 366.472 130.214 363.951 133.273C361.459 136.303 360.213 140.721 360.213 146.527ZM430.86 154.301L438.761 155.278C437.515 159.894 435.207 163.476 431.837 166.025C428.467 168.574 424.162 169.848 418.923 169.848C412.324 169.848 407.085 167.823 403.205 163.774C399.353 159.696 397.428 153.989 397.428 146.654C397.428 139.064 399.382 133.174 403.29 128.982C407.198 124.791 412.268 122.695 418.498 122.695C424.53 122.695 429.458 124.748 433.281 128.855C437.104 132.961 439.016 138.739 439.016 146.187C439.016 146.64 439.002 147.32 438.974 148.226H405.329C405.612 153.182 407.014 156.977 409.535 159.611C412.055 162.244 415.199 163.561 418.965 163.561C421.769 163.561 424.162 162.825 426.145 161.352C428.127 159.88 429.699 157.529 430.86 154.301ZM405.754 141.939H430.945C430.605 138.144 429.642 135.298 428.056 133.4C425.621 130.455 422.463 128.982 418.583 128.982C415.071 128.982 412.112 130.157 409.705 132.508C407.326 134.859 406.009 138.002 405.754 141.939ZM446.664 168.829V123.715H453.546V130.129C456.86 125.173 461.646 122.695 467.905 122.695C470.623 122.695 473.115 123.191 475.381 124.182C477.675 125.145 479.388 126.419 480.521 128.005C481.654 129.591 482.447 131.474 482.9 133.655C483.183 135.071 483.325 137.549 483.325 141.089V168.829H475.678V141.386C475.678 138.271 475.381 135.949 474.786 134.42C474.192 132.862 473.13 131.63 471.6 130.724C470.099 129.789 468.329 129.322 466.29 129.322C463.033 129.322 460.216 130.356 457.837 132.423C455.486 134.49 454.311 138.413 454.311 144.19V168.829H446.664ZM513.999 148.821L521.773 148.141C522.141 151.256 522.991 153.819 524.322 155.83C525.681 157.812 527.777 159.427 530.609 160.673C533.441 161.89 536.627 162.499 540.167 162.499C543.311 162.499 546.086 162.032 548.493 161.097C550.901 160.163 552.685 158.888 553.846 157.274C555.035 155.632 555.63 153.847 555.63 151.922C555.63 149.968 555.064 148.268 553.931 146.824C552.798 145.351 550.929 144.119 548.323 143.128C546.653 142.477 542.957 141.471 537.236 140.112C531.515 138.724 527.508 137.422 525.214 136.204C522.24 134.646 520.017 132.72 518.545 130.427C517.1 128.104 516.378 125.513 516.378 122.653C516.378 119.509 517.27 116.578 519.054 113.859C520.839 111.112 523.444 109.031 526.871 107.615C530.298 106.198 534.107 105.49 538.298 105.49C542.914 105.49 546.978 106.241 550.49 107.742C554.03 109.215 556.749 111.395 558.646 114.284C560.544 117.173 561.563 120.444 561.705 124.097L553.803 124.692C553.379 120.755 551.934 117.781 549.47 115.771C547.035 113.76 543.424 112.755 538.638 112.755C533.654 112.755 530.014 113.675 527.72 115.516C525.455 117.328 524.322 119.523 524.322 122.1C524.322 124.338 525.129 126.178 526.743 127.623C528.329 129.067 532.464 130.554 539.148 132.083C545.86 133.584 550.462 134.901 552.954 136.034C556.579 137.705 559.255 139.829 560.983 142.406C562.71 144.955 563.574 147.9 563.574 151.242C563.574 154.555 562.625 157.685 560.728 160.63C558.83 163.547 556.097 165.827 552.529 167.469C548.989 169.084 544.996 169.891 540.55 169.891C534.914 169.891 530.184 169.07 526.361 167.427C522.566 165.784 519.578 163.321 517.398 160.035C515.245 156.722 514.113 152.984 513.999 148.821ZM569.268 146.272C569.268 137.917 571.59 131.729 576.235 127.708C580.115 124.366 584.844 122.695 590.423 122.695C596.625 122.695 601.695 124.734 605.631 128.812C609.568 132.862 611.536 138.469 611.536 145.635C611.536 151.44 610.658 156.014 608.902 159.356C607.175 162.669 604.64 165.246 601.298 167.087C597.985 168.928 594.36 169.848 590.423 169.848C584.108 169.848 578.996 167.823 575.088 163.774C571.208 159.724 569.268 153.89 569.268 146.272ZM577.127 146.272C577.127 152.049 578.387 156.382 580.908 159.271C583.428 162.131 586.6 163.561 590.423 163.561C594.218 163.561 597.376 162.117 599.896 159.228C602.417 156.34 603.677 151.936 603.677 146.017C603.677 140.438 602.403 136.218 599.854 133.358C597.333 130.469 594.19 129.025 590.423 129.025C586.6 129.025 583.428 130.455 580.908 133.315C578.387 136.176 577.127 140.494 577.127 146.272ZM648.368 168.829V162.202C644.857 167.3 640.085 169.848 634.052 169.848C631.39 169.848 628.898 169.339 626.576 168.319C624.282 167.3 622.569 166.025 621.436 164.496C620.331 162.938 619.552 161.041 619.099 158.803C618.788 157.302 618.632 154.924 618.632 151.667V123.715H626.279V148.736C626.279 152.729 626.434 155.419 626.746 156.807C627.227 158.818 628.247 160.404 629.804 161.565C631.362 162.698 633.288 163.264 635.582 163.264C637.876 163.264 640.028 162.683 642.039 161.522C644.049 160.333 645.466 158.733 646.287 156.722C647.136 154.683 647.561 151.738 647.561 147.886V123.715H655.208V168.829H648.368ZM665.405 168.829V123.715H672.287V130.554C674.042 127.354 675.657 125.244 677.129 124.224C678.63 123.205 680.273 122.695 682.057 122.695C684.634 122.695 687.254 123.516 689.916 125.159L687.282 132.253C685.413 131.149 683.544 130.596 681.675 130.596C680.004 130.596 678.503 131.106 677.172 132.126C675.841 133.117 674.892 134.505 674.326 136.289C673.476 139.008 673.051 141.981 673.051 145.21V168.829H665.405ZM722.16 152.304L729.679 153.281C728.858 158.464 726.748 162.528 723.35 165.473C719.98 168.39 715.831 169.848 710.903 169.848C704.729 169.848 699.759 167.838 695.992 163.816C692.254 159.766 690.385 153.975 690.385 146.442C690.385 141.571 691.192 137.308 692.806 133.655C694.421 130.002 696.87 127.269 700.155 125.456C703.469 123.615 707.066 122.695 710.945 122.695C715.845 122.695 719.852 123.941 722.967 126.433C726.083 128.897 728.079 132.409 728.957 136.969L721.523 138.115C720.815 135.085 719.555 132.805 717.742 131.276C715.958 129.747 713.792 128.982 711.243 128.982C707.391 128.982 704.262 130.37 701.855 133.145C699.447 135.892 698.244 140.254 698.244 146.229C698.244 152.29 699.405 156.694 701.727 159.441C704.049 162.188 707.08 163.561 710.818 163.561C713.82 163.561 716.326 162.641 718.337 160.8C720.348 158.959 721.622 156.127 722.16 152.304ZM765.365 154.301L773.266 155.278C772.02 159.894 769.712 163.476 766.342 166.025C762.972 168.574 758.667 169.848 753.428 169.848C746.829 169.848 741.59 167.823 737.71 163.774C733.858 159.696 731.933 153.989 731.933 146.654C731.933 139.064 733.887 133.174 737.795 128.982C741.703 124.791 746.772 122.695 753.003 122.695C759.035 122.695 763.963 124.748 767.786 128.855C771.609 132.961 773.521 138.739 773.521 146.187C773.521 146.64 773.507 147.32 773.478 148.226H739.834C740.117 153.182 741.519 156.977 744.039 159.611C746.56 162.244 749.704 163.561 753.47 163.561C756.274 163.561 758.667 162.825 760.649 161.352C762.632 159.88 764.204 157.529 765.365 154.301ZM740.259 141.939H765.45C765.11 138.144 764.147 135.298 762.561 133.4C760.125 130.455 756.968 128.982 753.088 128.982C749.576 128.982 746.617 130.157 744.209 132.508C741.83 134.859 740.514 138.002 740.259 141.939Z"
     fill="#DFDFDF"
     id="path6"
     style="fill:#252525;fill-opacity:1" />
  <path
     d="M356.15 260.829H339.827L333.338 243.948H303.632L297.498 260.829H281.58L310.526 186.512H326.393L356.15 260.829ZM328.522 231.427L318.282 203.85L308.245 231.427H328.522ZM370.093 260.829L353.06 206.993H366.899L376.987 242.275L386.264 206.993H400.002L408.975 242.275L419.265 206.993H433.307L416.021 260.829H402.334L393.057 226.205L383.932 260.829H370.093ZM449.43 223.417L436.503 221.085C437.956 215.881 440.457 212.028 444.006 209.527C447.554 207.026 452.826 205.776 459.822 205.776C466.176 205.776 470.907 206.536 474.016 208.057C477.125 209.544 479.305 211.454 480.556 213.785C481.84 216.084 482.482 220.325 482.482 226.509L482.33 243.137C482.33 247.868 482.55 251.366 482.989 253.63C483.462 255.861 484.324 258.26 485.574 260.829H471.481C471.11 259.883 470.653 258.48 470.113 256.621C469.876 255.776 469.707 255.219 469.606 254.948C467.173 257.314 464.57 259.088 461.799 260.271C459.028 261.454 456.071 262.045 452.928 262.045C447.385 262.045 443.009 260.542 439.798 257.534C436.621 254.526 435.033 250.724 435.033 246.128C435.033 243.086 435.76 240.383 437.213 238.017C438.666 235.617 440.694 233.792 443.296 232.542C445.932 231.258 449.717 230.142 454.651 229.196C461.309 227.946 465.922 226.78 468.491 225.698V224.279C468.491 221.542 467.815 219.598 466.463 218.449C465.111 217.266 462.559 216.675 458.808 216.675C456.273 216.675 454.296 217.182 452.877 218.196C451.458 219.176 450.309 220.916 449.43 223.417ZM468.491 234.975C466.666 235.584 463.776 236.31 459.822 237.155C455.868 238 453.283 238.828 452.066 239.639C450.207 240.957 449.278 242.63 449.278 244.658C449.278 246.652 450.021 248.375 451.508 249.828C452.995 251.282 454.888 252.008 457.186 252.008C459.754 252.008 462.205 251.163 464.536 249.474C466.26 248.189 467.392 246.618 467.933 244.759C468.305 243.542 468.491 241.227 468.491 237.814V234.975ZM508.135 260.829H493.89V206.993H507.121V214.647C509.385 211.031 511.413 208.648 513.204 207.499C515.029 206.35 517.091 205.776 519.389 205.776C522.633 205.776 525.759 206.671 528.767 208.463L524.357 220.882C521.957 219.328 519.727 218.551 517.665 218.551C515.671 218.551 513.981 219.108 512.596 220.223C511.21 221.305 510.112 223.282 509.301 226.155C508.523 229.027 508.135 235.043 508.135 244.201V260.829ZM582.251 260.829H569.02V252.921C566.823 255.996 564.221 258.294 561.213 259.815C558.239 261.302 555.231 262.045 552.189 262.045C546.005 262.045 540.699 259.562 536.272 254.594C531.878 249.592 529.681 242.63 529.681 233.708C529.681 224.583 531.828 217.655 536.12 212.924C540.412 208.158 545.836 205.776 552.392 205.776C558.408 205.776 563.612 208.277 568.006 213.278V186.512H582.251V260.829ZM544.23 232.745C544.23 238.49 545.025 242.647 546.613 245.215C548.911 248.933 552.122 250.792 556.245 250.792C559.523 250.792 562.311 249.406 564.609 246.635C566.907 243.83 568.056 239.656 568.056 234.113C568.056 227.929 566.941 223.485 564.711 220.781C562.48 218.044 559.624 216.675 556.143 216.675C552.764 216.675 549.925 218.027 547.627 220.73C545.363 223.4 544.23 227.405 544.23 232.745ZM589.248 245.469L603.544 243.289C604.152 246.06 605.386 248.172 607.244 249.626C609.103 251.045 611.705 251.755 615.051 251.755C618.735 251.755 621.506 251.079 623.365 249.727C624.615 248.781 625.241 247.513 625.241 245.925C625.241 244.844 624.903 243.948 624.227 243.238C623.517 242.562 621.929 241.937 619.461 241.363C607.971 238.828 600.688 236.513 597.613 234.418C593.354 231.511 591.225 227.473 591.225 222.302C591.225 217.638 593.067 213.718 596.751 210.541C600.435 207.364 606.146 205.776 613.885 205.776C621.253 205.776 626.728 206.976 630.31 209.375C633.892 211.775 636.359 215.323 637.711 220.021L624.277 222.505C623.703 220.409 622.604 218.804 620.982 217.689C619.394 216.574 617.113 216.016 614.139 216.016C610.387 216.016 607.701 216.54 606.078 217.587C604.997 218.331 604.456 219.294 604.456 220.477C604.456 221.491 604.929 222.353 605.876 223.062C607.16 224.009 611.587 225.344 619.157 227.067C626.761 228.791 632.067 230.903 635.075 233.404C638.049 235.938 639.536 239.47 639.536 243.999C639.536 248.933 637.475 253.174 633.351 256.723C629.228 260.271 623.128 262.045 615.051 262.045C607.718 262.045 601.905 260.558 597.613 257.584C593.354 254.61 590.566 250.572 589.248 245.469Z"
     fill="#FFB907"
     id="path8" />
</svg>
