<?xml version="1.0" encoding="utf-8"?>
<!-- Generator: Adobe Illustrator 19.0.0, SVG Export Plug-In . SVG Version: 6.00 Build 0)  -->
<svg version="1.1" id="Layer_1" xmlns="http://www.w3.org/2000/svg" xmlns:xlink="http://www.w3.org/1999/xlink" x="0px" y="0px"
	 viewBox="0 0 682 459" style="enable-background:new 0 0 682 459;" xml:space="preserve">
<g>
	<path d="M341,96.4c-44.5,0-83.9,21.9-108.1,55.5c-7.9,11-14.2,23.2-18.5,36.4h21.6h52.1v90.1h39.3v-24.3h22.7v87.8
		c-3,0.3-6.1,0.4-9.2,0.4c-62.2,0-112.8-50.6-112.8-112.8c0-10.3,1.4-20.2,4-29.6h-21c-2.2,9.5-3.3,19.4-3.3,29.6
		c0,73.4,59.7,133.1,133.1,133.1c3.1,0,6.1-0.1,9.2-0.3c1.7-0.1,3.4-0.3,5.1-0.5c0.1,0,0.3,0,0.4,0c11.8-1.3,23.1-4.1,33.8-8.3v0
		c0,0,0,0,0,0v-99.4H428v-36.4H327.5v-29.5H366v-36.4H259.3c20.5-21.6,49.6-35.1,81.7-35.1c62.2,0,112.8,50.6,112.8,112.8
		c0,40.1-21,75.4-52.6,95.4v23.4c43.3-22,73-67,73-118.8C474.1,156.1,414.4,96.4,341,96.4z"/>
</g>
</svg>
